<?xml version="1.0" encoding="utf-8"?>
<!-- Generator: Adobe Illustrator 21.1.0, SVG Export Plug-In . SVG Version: 6.00 Build 0)  -->
<svg version="1.1" id="Layer_1" xmlns="http://www.w3.org/2000/svg" xmlns:xlink="http://www.w3.org/1999/xlink" x="0px" y="0px"
	 viewBox="0 0 792 612" style="enable-background:new 0 0 792 612;" xml:space="preserve">
<style type="text/css">
	.st0{fill:url(#SVGID_1_);}
	.st1{fill:url(#SVGID_2_);}
	.st2{fill:#6D6E71;}
	.st3{fill:#39B54A;}
	.st4{font-family:'Avenir-Roman';}
	.st5{font-size:32.5074px;}
</style>
<g>
	<g>
		<linearGradient id="SVGID_1_" gradientUnits="userSpaceOnUse" x1="440.4591" y1="147.3205" x2="440.4591" y2="254.8589">
			<stop  offset="0" style="stop-color:#8CC640"/>
			<stop  offset="0.4177" style="stop-color:#8AC541"/>
			<stop  offset="0.616" style="stop-color:#83C342"/>
			<stop  offset="0.7679" style="stop-color:#75C044"/>
			<stop  offset="0.8955" style="stop-color:#5EBB47"/>
			<stop  offset="1" style="stop-color:#3BB54A"/>
		</linearGradient>
		<path class="st0" d="M423.8,147.3v20.4c9.8,7.9,16.2,19.9,16.2,33.5c0,13.5-6.4,25.4-16.2,33.3v20.4c19.7-9.9,33.4-30.1,33.4-53.7
			C457.2,177.6,443.5,157.2,423.8,147.3z"/>
		<linearGradient id="SVGID_2_" gradientUnits="userSpaceOnUse" x1="371.1531" y1="261.4267" x2="371.1531" y2="140.6444">
			<stop  offset="0" style="stop-color:#3BB54A"/>
			<stop  offset="1" style="stop-color:#8CC640"/>
		</linearGradient>
		<path class="st1" d="M353.9,201.2c0-14.1,6.8-26.6,17.2-34.4v-0.1l0.2,0.1c5-3.8,10.9-6.4,17-7.7v33.6h17.2v-41.8l0-0.1v-9.5
			c-12-1.6-23.9,0.5-34.4,5.6v0c-0.1,0-0.1,0.1-0.2,0.1c-2,1-4,2.1-5.9,3.3c-0.5,0.3-1,0.5-1.4,0.9c-0.8,0.5-1.4,1.1-2.2,1.7
			c-14.9,11-24.7,28.6-24.7,48.5c0,33.3,26.9,60.2,60.2,60.2c3,0,5.8-0.4,8.6-0.9v-17.4c-2.8,0.6-5.7,1-8.6,1
			C373.2,244.2,353.9,225,353.9,201.2z"/>
	</g>
	<g>
		<path class="st2" d="M158.3,355.4c0-3,0.2-5.8,0.6-8.4c0.4-2.6,1.1-4.8,2.2-6.8c1.8-3.2,4.3-5.8,7.7-7.8c3.3-2,7.3-2.9,11.9-2.9
			c4.6,0,8.6,1,11.9,2.9c3.3,2,5.9,4.6,7.7,7.8c1.1,2,1.8,4.2,2.2,6.8c0.4,2.6,0.6,5.4,0.6,8.4V380c0,3-0.2,5.8-0.6,8.4
			c-0.4,2.6-1.1,4.8-2.2,6.8c-1.8,3.2-4.3,5.8-7.7,7.8s-7.3,2.9-11.9,2.9c-4.6,0-8.6-1-11.9-2.9c-3.3-2-5.9-4.6-7.7-7.8
			c-1.1-2-1.8-4.2-2.2-6.8c-0.4-2.6-0.6-5.4-0.6-8.4V355.4z M173.3,382.4c0,2.9,0.7,5,2,6.4c1.3,1.4,3.1,2.1,5.4,2.1
			c2.3,0,4.1-0.7,5.4-2.1c1.3-1.4,2-3.6,2-6.4V353c0-2.8-0.7-5-2-6.4c-1.3-1.4-3.1-2.1-5.4-2.1c-2.3,0-4.1,0.7-5.4,2.1
			c-1.3,1.4-2,3.6-2,6.4V382.4z"/>
		<path class="st2" d="M225.2,330.3h15v7.2h0.3c1.6-2.4,3.5-4.3,5.7-5.8c2.2-1.5,5-2.3,8.5-2.3c1.9,0,3.7,0.3,5.6,1
			c1.9,0.6,3.5,1.7,5,3.2c1.5,1.5,2.7,3.4,3.5,5.7c0.9,2.3,1.3,5.1,1.3,8.5v57.3h-15v-51.7c0-2.8-0.6-4.9-1.9-6.5
			c-1.3-1.6-3.1-2.4-5.5-2.4c-2.8,0-4.8,0.9-5.9,2.7c-1.1,1.8-1.6,4.3-1.6,7.7v50.3h-15V330.3z"/>
		<path class="st2" d="M320,405.1h-13.3l-19.5-74.7h15.9l10,47.7h0.3l10-47.7h15.9L320,405.1z"/>
		<path class="st2" d="M369.3,373.4v10.2c0,2.4,0.7,4.2,2,5.5c1.3,1.3,3.1,1.9,5.4,1.9c2.8,0,4.7-0.8,5.7-2.5c0.9-1.7,1.5-3.3,1.7-5
			h15c0,3.1-0.5,6.1-1.5,8.8c-1,2.8-2.5,5.1-4.5,7.1c-2,2.1-4.3,3.7-7.1,4.9c-2.8,1.2-5.8,1.8-9.3,1.8c-4.6,0-8.6-1-11.9-2.9
			c-3.3-2-5.9-4.6-7.7-7.8c-1.1-2-1.8-4.2-2.2-6.8c-0.4-2.6-0.6-5.4-0.6-8.4v-24.6c0-3,0.2-5.8,0.6-8.4c0.4-2.6,1.1-4.8,2.2-6.8
			c1.8-3.2,4.3-5.8,7.7-7.8c3.3-2,7.3-2.9,11.9-2.9c3.4,0,6.6,0.6,9.4,1.8c2.8,1.2,5.2,2.8,7.1,4.9c1.9,2.1,3.4,4.6,4.4,7.4
			c1,2.9,1.5,5.9,1.5,9.1v20.6H369.3z M369.3,361.6h14.7V353c0-2.8-0.7-5-2-6.4c-1.3-1.4-3.1-2.1-5.4-2.1c-2.3,0-4.1,0.7-5.4,2.1
			c-1.3,1.4-2,3.6-2,6.4V361.6z"/>
		<path class="st2" d="M486.8,307.6h15v22.7h9.3v11.8h-9.3v41.4c0,1.8,0.2,3.1,0.5,4.1c0.3,1,0.9,1.7,1.6,2.2
			c0.7,0.5,1.7,0.8,2.9,0.9c1.2,0.1,2.6,0.1,4.3,0.1v14.1h-6.2c-3.4,0-6.3-0.5-8.6-1.6c-2.3-1.1-4.1-2.5-5.5-4.1
			c-1.4-1.7-2.4-3.6-3-5.7c-0.6-2.1-1-4.1-1-6.1v-45.4h-7.5v-11.8h7.5V307.6z"/>
		<path class="st2" d="M527.9,300.1h15v15h-15V300.1z M527.9,330.3h15v74.7h-15V330.3z"/>
		<path class="st2" d="M611.3,405.1h-15v-7.2H596c-1.6,2.4-3.5,4.3-5.7,5.8c-2.2,1.5-5,2.3-8.5,2.3c-1.9,0-3.7-0.3-5.6-1
			c-1.9-0.6-3.5-1.7-5-3.2c-1.5-1.5-2.7-3.4-3.5-5.7c-0.9-2.3-1.3-5.1-1.3-8.5v-57.3h15v51.7c0,2.8,0.6,4.9,1.9,6.5
			c1.3,1.6,3.1,2.4,5.5,2.4c2.8,0,4.8-0.9,5.9-2.7c1.1-1.8,1.6-4.3,1.6-7.7v-50.3h15V405.1z"/>
		<path class="st2" d="M634.7,330.3h15v7.2h0.3c1.6-2.4,3.5-4.3,5.7-5.8c2.2-1.5,5-2.3,8.5-2.3c3.2,0,5.9,0.8,8.1,2.4
			c2.2,1.6,3.9,3.3,5.3,5.2c1.9-2.1,3.9-3.8,6.2-5.3c2.3-1.5,5.4-2.2,9.4-2.2c1.9,0,3.8,0.3,5.7,1c2,0.6,3.7,1.7,5.3,3.2
			c1.6,1.5,2.8,3.4,3.8,5.7s1.5,5.1,1.5,8.5v57.3h-15v-51.7c0-2.8-0.6-4.9-1.9-6.5c-1.3-1.6-3.1-2.4-5.5-2.4c-2.9,0-4.8,0.9-5.9,2.7
			c-1.1,1.8-1.6,4.3-1.6,7.7v50.3h-15v-51.7c0-2.8-0.6-4.9-1.9-6.5c-1.3-1.6-3.1-2.4-5.5-2.4c-2.8,0-4.8,0.9-5.9,2.7
			c-1.1,1.8-1.6,4.3-1.6,7.7v50.3h-15V330.3z"/>
	</g>
	<path class="st2" d="M135.3,392c-1.9,0.4-3.4,0.6-4.9,0.6c-13.4,0-24.2-10.9-24.2-24.2c0-7.4,3.3-14.3,9.1-18.9l0,0l0.7-0.5
		c2.2-1.7,4.7-3,7.5-3.8v19.7h13.8l0-34.2l-1.5-0.2c-6.6-0.9-13.2,0-19.4,2.5l0-0.1l-2.5,1.2c-1.3,0.6-2.5,1.3-4,2.3
		c-0.2,0.1-0.4,0.2-0.6,0.4c-0.3,0.2-0.6,0.5-0.9,0.7l-0.4,0.3c-9.9,7.3-15.6,18.4-15.6,30.6c0,20.9,17,38,38,38
		c1.9,0,3.8-0.3,5.5-0.5l1.4-0.2v-14L135.3,392z"/>
	<path class="st2" d="M457.4,392c-1.9,0.4-3.4,0.6-4.9,0.6c-13.4,0-24.2-10.9-24.2-24.2c0-7.4,3.3-14.3,9.1-18.9l0,0l0.7-0.5
		c2.2-1.7,4.7-3,7.5-3.8v19.7h13.8l0-34.2l-1.5-0.2c-6.6-0.9-13.2,0-19.4,2.5l0-0.1l-2.5,1.2c-1.3,0.6-2.5,1.3-4,2.3
		c-0.2,0.1-0.4,0.2-0.6,0.4c-0.3,0.2-0.6,0.5-0.9,0.7l-0.4,0.3c-9.9,7.3-15.6,18.4-15.6,30.6c0,20.9,17,38,38,38
		c1.9,0,3.8-0.3,5.5-0.5l1.4-0.2v-14L457.4,392z"/>
</g>
<text transform="matrix(1 0 0 1 154.7555 442.7684)" class="st3 st4 st5">equipment | branding | packaging</text>
</svg>
